<svg width="42" height="31" viewBox="0 0 42 31" fill="none" xmlns="http://www.w3.org/2000/svg">
<g clip-path="url(#clip0_10_21)">
<path d="M17.2557 13.4167H16.3652H5.25C4.06662 13.4167 3.125 14.3547 3.125 15.5C3.125 16.6453 4.06662 17.5833 5.25 17.5833H16.3652H17.2559L16.7921 18.3437L11.2963 27.3526C10.6964 28.3388 11.0161 29.6113 12.0253 30.2059C13.0401 30.8038 14.3432 30.4789 14.9455 29.4888L14.9458 29.4884L20.5731 20.261L21.0001 19.5608L21.4269 20.2611L27.0461 29.4804L27.0463 29.4808C27.6486 30.4708 28.9517 30.7958 29.9665 30.1979C30.9757 29.6032 31.2954 28.3307 30.6955 27.3445L25.2079 18.3436L24.7443 17.5833H25.6348H36.75C37.9334 17.5833 38.875 16.6453 38.875 15.5C38.875 14.3547 37.9334 13.4167 36.75 13.4167L25.6348 13.4167H24.7441L25.2079 12.6563L30.7037 3.64743L17.2557 13.4167ZM17.2557 13.4167L16.7921 12.6564M17.2557 13.4167L16.7921 12.6564M16.7921 12.6564L11.3045 3.6555C10.7046 2.6693 11.0243 1.39676 12.0335 0.802143C13.0483 0.204233 14.3514 0.529165 14.9537 1.51924L14.9539 1.5196M16.7921 12.6564L14.9539 1.5196M14.9539 1.5196L20.5731 10.7389L20.9999 11.4391M14.9539 1.5196L20.9999 11.4391M20.9999 11.4391L21.4269 10.739M20.9999 11.4391L21.4269 10.739M21.4269 10.739L27.0542 1.51163L27.0545 1.51116M21.4269 10.739L27.0545 1.51116M27.0545 1.51116C27.6568 0.521091 28.9599 0.196159 29.9747 0.794069M27.0545 1.51116L29.9747 0.794069M29.9747 0.794069C30.9837 1.38858 31.3035 2.66077 30.704 3.6469L29.9747 0.794069Z" stroke="#03EDAE"/>
</g>
<defs>
<clipPath id="clip0_10_21">
<rect width="31" height="42" fill="white" transform="matrix(0 -1 1 0 0 31)"/>
</clipPath>
</defs>
</svg>
