<svg width="52" height="52" viewBox="0 0 52 52" fill="none" xmlns="http://www.w3.org/2000/svg">
<g clip-path="url(#clip0_10_19)">
<path d="M24.6349 21.6886L24.0053 21.059L16.1456 13.1993C15.3088 12.3626 13.9797 12.3601 13.1699 13.1699C12.36 13.9797 12.3625 15.3088 13.1993 16.1456L21.059 24.0053L21.6888 24.6351L20.8231 24.8448L10.5668 27.3289C9.44523 27.602 8.77148 28.7279 9.06465 29.862C9.35945 31.0024 10.5106 31.694 11.6366 31.4198L11.6371 31.4197L22.141 28.8741L22.938 28.6809L22.7447 29.4779L20.199 39.9703L20.1989 39.9707C19.9247 41.0967 20.6163 42.2478 21.7567 42.5426C22.8908 42.8358 24.0167 42.162 24.2898 41.0405L26.774 30.7955L26.9839 29.9302L27.6135 30.5598L35.4732 38.4195C36.31 39.2563 37.6391 39.2588 38.4489 38.4489C39.2587 37.6391 39.2562 36.31 38.4195 35.4732L30.5598 27.6135L29.93 26.9837L30.7957 26.774L41.052 24.2899L24.6349 21.6886ZM24.6349 21.6886L24.8447 20.8233M24.6349 21.6886L24.8447 20.8233M24.8447 20.8233L27.329 10.5783C27.6021 9.45676 28.728 8.783 29.8621 9.07618C31.0024 9.37097 31.6941 10.5221 31.4199 11.6481L31.4198 11.6485M24.8447 20.8233L31.4198 11.6485M31.4198 11.6485L28.8741 22.1409L28.6808 22.9379M31.4198 11.6485L28.6808 22.9379M28.6808 22.9379L29.4778 22.7447M28.6808 22.9379L29.4778 22.7447M29.4778 22.7447L39.9816 20.1991L39.9822 20.199M29.4778 22.7447L39.9822 20.199M39.9822 20.199C41.1081 19.9248 42.2593 20.6164 42.5541 21.7568M39.9822 20.199L42.5541 21.7568M42.5541 21.7568C42.8472 22.8907 42.1738 24.0164 41.0526 24.2898L42.5541 21.7568Z" stroke="#03EDAE"/>
</g>
<defs>
<clipPath id="clip0_10_19">
<rect width="31" height="42" fill="white" transform="translate(0 21.9203) rotate(-45)"/>
</clipPath>
</defs>
</svg>
