<svg width="32" height="43" viewBox="0 0 32 43" fill="none" xmlns="http://www.w3.org/2000/svg">
<g clip-path="url(#clip0_10_15)">
<path d="M18.1667 17.6415V16.7549V5.375C18.1667 4.16094 17.1952 3.1875 16 3.1875C14.8048 3.1875 13.8333 4.16094 13.8333 5.375V16.7549V17.6418L13.0745 17.1827L3.77504 11.556C3.77495 11.556 3.77486 11.5559 3.77477 11.5559C2.74674 10.9358 1.42205 11.2682 0.804879 12.3071C0.185733 13.3494 0.520549 14.6894 1.54998 15.3106L1.55045 15.3108L11.0755 21.0722L11.783 21.5001L11.0753 21.9279L1.55867 27.6808L1.55831 27.681C0.528882 28.3022 0.194066 29.6422 0.813212 30.6845C1.43043 31.7235 2.7553 32.0559 3.78337 31.4356L13.0746 25.8173L13.8333 25.3585V26.2451V37.625C13.8333 38.8391 14.8048 39.8125 16 39.8125C17.1952 39.8125 18.1667 38.8391 18.1667 37.625V26.2451V25.3582L18.9255 25.8173L28.225 31.444L18.1667 17.6415ZM18.1667 17.6415L18.9254 17.1827M18.1667 17.6415L18.9254 17.1827M18.9254 17.1827L28.2166 11.5644C28.2168 11.5644 28.2169 11.5643 28.2171 11.5642C29.2451 10.9442 30.5697 11.2766 31.1868 12.3155C31.8059 13.3578 31.4711 14.6978 30.4417 15.319L30.4413 15.3192M18.9254 17.1827L30.4413 15.3192M30.4413 15.3192L20.9247 21.0721L20.2171 21.4999M30.4413 15.3192L20.2171 21.4999M20.2171 21.4999L20.9246 21.9278M20.2171 21.4999L20.9246 21.9278M20.9246 21.9278L30.4496 27.6892L30.45 27.6894M20.9246 21.9278L30.45 27.6894M30.45 27.6894C31.4795 28.3106 31.8143 29.6506 31.1951 30.6929M30.45 27.6894L31.1951 30.6929M31.1951 30.6929C30.578 31.7317 29.2535 32.0641 28.2255 31.4443L31.1951 30.6929Z" stroke="#03EDAE"/>
</g>
<defs>
<clipPath id="clip0_10_15">
<rect width="32" height="43" fill="white"/>
</clipPath>
</defs>
</svg>
