<svg width="41" height="55" viewBox="0 0 41 55" fill="none" xmlns="http://www.w3.org/2000/svg">
<g clip-path="url(#clip0_10_13)">
<path d="M20.5 3.4375C22.3898 3.4375 23.9167 4.97363 23.9167 6.875V21.4307L35.8216 14.2441C37.4445 13.2666 39.5372 13.793 40.5089 15.4258C41.4805 17.0586 40.9573 19.1641 39.3344 20.1416L27.1411 27.5L39.3451 34.8691C40.968 35.8467 41.4911 37.9521 40.5195 39.585C39.5479 41.2178 37.4552 41.7441 35.8323 40.7666L23.9167 33.5693V48.125C23.9167 50.0264 22.3898 51.5625 20.5 51.5625C18.6102 51.5625 17.0833 50.0264 17.0833 48.125V33.5693L5.17838 40.7559C3.55547 41.7334 1.46276 41.207 0.491144 39.5742C-0.48047 37.9414 0.042707 35.8359 1.66562 34.8584L13.8589 27.5L1.65495 20.1309C0.0320298 19.1533 -0.491147 17.0479 0.480467 15.415C1.45208 13.7822 3.54479 13.2559 5.16771 14.2334L17.0833 21.4307V6.875C17.0833 4.97363 18.6102 3.4375 20.5 3.4375Z" fill="#1E1448"/>
</g>
<defs>
<clipPath id="clip0_10_13">
<rect width="41" height="55" fill="white"/>
</clipPath>
</defs>
</svg>
